<?xml version="1.0" encoding="UTF-8" standalone="no"?>
<svg width="154px" height="30px" viewBox="0 0 154 30" version="1.1" xmlns="http://www.w3.org/2000/svg" xmlns:xlink="http://www.w3.org/1999/xlink" xmlns:sketch="http://www.bohemiancoding.com/sketch/ns">
    <!-- Generator: Sketch 3.5.1 (25234) - http://www.bohemiancoding.com/sketch -->
    <g id="Design" stroke="none" stroke-width="1" fill="none" fill-rule="evenodd" sketch:type="MSPage">
        <g id="prop" sketch:type="MSArtboardGroup" transform="translate(-36.000000, -24.000000)" fill="#FFFFFF">
            <g id="goodments-logo" sketch:type="MSLayerGroup" transform="translate(36.000000, 24.000000)">
                <g id="goodments_logo_white-01" sketch:type="MSShapeGroup">
                    <g id="Layer_1">
                        <g id="Group">
                            <path d="M151.354115,16.3064516 C149.62716,16.3064516 148.597325,17.6774194 148.597325,18.9032258 C148.597325,20.3387097 149.62716,21.7096774 151.354115,21.7096774 C152.843416,21.7096774 153.873251,20.3387097 153.873251,18.9032258 C153.873251,17.6774194 152.843416,16.3064516 151.354115,16.3064516 L151.354115,16.3064516 Z" id="Shape"></path>
                            <path d="M12.5006173,21.9354839 C12.5006173,21.9354839 12.5006173,21.9193548 12.5006173,21.9354839 C12.5006173,24.5645161 10.7261317,26.3709677 8.31790123,26.3709677 C5.9255144,26.3709677 4.16687243,24.5645161 4.16687243,21.9354839 C4.16687243,21.9193548 4.16687243,21.9354839 4.16687243,21.9354839 L0.142592593,21.9354839 C0.142592593,21.9354839 0.142592593,21.9193548 0.142592593,21.9354839 C0.142592593,26.6129032 3.58065844,30 8.31790123,30 C13.0868313,30 16.5248971,26.6290323 16.5248971,21.9516129 C16.5248971,21.9354839 16.5248971,21.9516129 16.5248971,21.9516129 L12.5006173,21.9516129 L12.5006173,21.9354839 Z" id="Shape"></path>
                            <path d="M8.19115226,21.6774194 C12.9600823,21.6774194 16.3981481,18.2741935 16.3981481,13.5967742 C16.3981481,8.91935484 12.849177,5.41935484 8.19115226,5.41935484 C3.56481481,5.41935484 0.0158436214,8.88709677 0.0158436214,13.5967742 C0.0158436214,18.2741935 3.45390947,21.6774194 8.19115226,21.6774194 L8.19115226,21.6774194 Z M8.19115226,9.0483871 C10.5993827,9.0483871 12.3738683,10.9677419 12.3738683,13.6129032 C12.3738683,16.2419355 10.5993827,18.0806452 8.19115226,18.0806452 C5.79876543,18.0806452 4.02427984,16.2419355 4.02427984,13.6129032 C4.02427984,10.9354839 5.76707819,9.0483871 8.19115226,9.0483871 L8.19115226,9.0483871 Z" id="Shape"></path>
                            <path d="M88.5816872,5.43548387 C86.5537037,5.43548387 84.9534979,6.32258065 84.0504115,7.74193548 C83.2582305,6.32258065 81.8164609,5.43548387 79.8676955,5.43548387 C77.8080247,5.43548387 76.5246914,6.56451613 75.8909465,7.62903226 L75.8909465,5.80645161 L72.0884774,5.80645161 L72.0884774,21.4516129 L76.0493827,21.4516129 L76.0493827,12.0322581 C76.0493827,10.1935484 77.1425926,9.09677419 78.5685185,9.09677419 C80.0578189,9.09677419 80.9609053,10.1290323 80.9609053,11.8870968 L80.9609053,21.4516129 L84.9218107,21.4516129 L84.9218107,12.0645161 C84.9218107,10.1935484 85.9674897,9.09677419 87.4251029,9.09677419 C88.9144033,9.09677419 89.8333333,10.1935484 89.8333333,12.0322581 L89.8333333,21.4516129 L93.7942387,21.4516129 L93.7942387,11.0806452 C93.7942387,7.77419355 92.0355967,5.43548387 88.5816872,5.43548387 L88.5816872,5.43548387 Z" id="Shape"></path>
                            <path d="M102.983539,5.43548387 C98.6423868,5.43548387 95.537037,8.93548387 95.537037,13.6129032 C95.537037,18.2580645 98.6423868,21.6935484 103.538066,21.6935484 C107.324691,21.6935484 109.352675,19.3870968 109.938889,18.2903226 L107.293004,16.2419355 C106.849383,16.8870968 105.661111,18.1935484 103.60144,18.1935484 C101.36749,18.1935484 99.7355967,16.7903226 99.640535,14.6935484 L110.350823,14.6935484 C110.38251,14.3709677 110.38251,14.0483871 110.38251,13.7580645 C110.38251,8.67741935 107.704938,5.43548387 102.983539,5.43548387 L102.983539,5.43548387 Z M99.767284,11.9354839 C99.9415638,10.1612903 101.161523,8.79032258 103.046914,8.79032258 C104.884774,8.79032258 106.215638,10.1612903 106.3107,11.9354839 L99.767284,11.9354839 L99.767284,11.9354839 Z" id="Shape"></path>
                            <path d="M119.888683,5.43548387 C117.90823,5.43548387 116.450617,6.56451613 115.816872,7.62903226 L115.816872,5.96774194 L111.855967,5.96774194 L111.855967,21.4516129 L115.975309,21.4516129 L115.975309,12 C115.975309,10.3387097 117.020988,9.09677419 118.684568,9.09677419 C120.047119,9.09677419 121.203704,10.1612903 121.203704,11.8870968 L121.203704,21.4516129 L125.164609,21.4516129 L125.164609,12.3548387 C125.164609,9.08064516 124.229835,5.43548387 119.888683,5.43548387 L119.888683,5.43548387 Z" id="Shape"></path>
                            <path d="M131.81893,15.1129032 L131.81893,9.19354839 L134.670782,9.19354839 L134.670782,5.80645161 L131.81893,5.80645161 L131.81893,2.58064516 L127.858025,2.58064516 L127.858025,5.82258065 L127.858025,9.14516129 L127.858025,15.2419355 C127.858025,19.4516129 129.394856,21.516129 133.023045,21.516129 C134.132099,21.516129 134.670782,21.3709677 134.670782,21.3709677 L134.670782,17.8709677 C134.353909,17.9032258 134.258848,17.9032258 134.00535,17.9032258 C132.452675,17.9032258 131.81893,17.4193548 131.81893,15.1129032 L131.81893,15.1129032 Z" id="Shape"></path>
                            <path d="M140.358642,9.96774194 C140.358642,9.19354839 140.992387,8.72580645 141.92716,8.72580645 C143.353086,8.72580645 144.192798,9.61290323 144.668107,10.2096774 L147.313992,8.19354839 C146.585185,6.98387097 144.984979,5.43548387 142.10144,5.43548387 C138.996091,5.43548387 136.572016,7.14516129 136.572016,10.0322581 C136.572016,15.5322581 143.749177,14.6290323 143.749177,16.983871 C143.749177,17.8709677 143.02037,18.3709677 141.895473,18.3709677 C140.184362,18.3709677 139.154527,17.5645161 138.409877,16.6774194 L136.049177,18.8064516 C136.857202,20.1451613 138.726749,21.6774194 141.721193,21.6774194 C145.000823,21.6774194 147.56749,19.7903226 147.56749,16.7580645 C147.56749,11.2419355 140.358642,12.4193548 140.358642,9.96774194 L140.358642,9.96774194 Z" id="Shape"></path>
                            <path d="M26.0152263,5.43548387 C21.3888889,5.43548387 17.8399177,8.90322581 17.8399177,13.6129032 C17.8399177,18.2903226 21.2779835,21.6935484 26.0152263,21.6935484 C30.7841564,21.6935484 34.2222222,18.2903226 34.2222222,13.6129032 C34.2222222,8.91935484 30.673251,5.43548387 26.0152263,5.43548387 L26.0152263,5.43548387 Z M26.0152263,18.0806452 C23.6228395,18.0806452 21.8483539,16.2419355 21.8483539,13.6129032 C21.8483539,10.9516129 23.5911523,9.0483871 26.0152263,9.0483871 C28.4234568,9.0483871 30.1979424,10.9677419 30.1979424,13.6129032 C30.1979424,16.2419355 28.4234568,18.0806452 26.0152263,18.0806452 L26.0152263,18.0806452 Z" id="Shape"></path>
                            <path d="M43.8393004,5.43548387 C39.212963,5.43548387 35.6639918,8.90322581 35.6639918,13.6129032 C35.6639918,18.2903226 39.1020576,21.6935484 43.8393004,21.6935484 C48.6082305,21.6935484 52.0462963,18.2903226 52.0462963,13.6129032 C52.0462963,8.91935484 48.4973251,5.43548387 43.8393004,5.43548387 L43.8393004,5.43548387 Z M43.8393004,18.0806452 C41.4469136,18.0806452 39.672428,16.2419355 39.672428,13.6129032 C39.672428,10.9516129 41.4152263,9.0483871 43.8393004,9.0483871 C46.2475309,9.0483871 48.0220165,10.9677419 48.0220165,13.6129032 C48.0220165,16.2419355 46.2633745,18.0806452 43.8393004,18.0806452 L43.8393004,18.0806452 Z" id="Shape"></path>
                            <path d="M65.2757202,7.4516129 C64.9588477,6.91935484 63.358642,5.43548387 60.7444444,5.43548387 C56.3874486,5.43548387 53.5197531,8.77419355 53.5197531,13.5806452 C53.5197531,18.3548387 56.5934156,21.6935484 60.9504115,21.6935484 C63.5329218,21.6935484 65.1331276,20.2096774 65.45,19.7096774 L65.45,21.4516129 L69.2524691,21.4516129 L69.2524691,0 L65.2915638,0 L65.2915638,7.4516129 L65.2757202,7.4516129 Z M61.4415638,18.0806452 C59.1759259,18.0806452 57.5440329,16.3709677 57.5440329,13.6129032 C57.5440329,10.9193548 59.1125514,9.0483871 61.4415638,9.0483871 C63.6596708,9.0483871 65.3390947,10.7096774 65.3390947,13.6129032 C65.3390947,16.0645161 63.8814815,18.0806452 61.4415638,18.0806452 L61.4415638,18.0806452 Z" id="Shape"></path>
                        </g>
                    </g>
                </g>
            </g>
        </g>
    </g>
</svg>